<?xml version="1.0" standalone="no"?>
<!DOCTYPE svg PUBLIC "-//W3C//DTD SVG 20010904//EN"
 "http://www.w3.org/TR/2001/REC-SVG-20010904/DTD/svg10.dtd">
<svg version="1.0" xmlns="http://www.w3.org/2000/svg"
 width="512.000000pt" height="512.000000pt" viewBox="0 0 512.000000 512.000000"
 preserveAspectRatio="xMidYMid meet">
<metadata>
Created by potrace 1.15, written by Peter Selinger 2001-2017
</metadata>
<g transform="translate(0.000000,512.000000) scale(0.100000,-0.100000)"
fill="#000000" stroke="none">
<path d="M1680 4344 c-14 -10 -29 -22 -35 -28 -24 -27 -116 -102 -169 -140
-25 -17 -26 -94 -2 -111 9 -7 16 -22 16 -34 0 -12 7 -29 15 -37 32 -32 18 -42
-62 -47 -122 -8 -235 -26 -265 -42 -14 -8 -35 -15 -46 -15 -12 0 -24 -4 -27
-10 -3 -5 -15 -10 -27 -10 -11 0 -36 -7 -56 -16 -21 -8 -50 -21 -67 -28 -53
-23 -119 -57 -150 -76 -16 -11 -40 -24 -52 -30 -13 -5 -23 -14 -23 -20 0 -5
-9 -10 -19 -10 -10 0 -21 -7 -25 -15 -3 -8 -12 -15 -20 -15 -8 0 -16 -3 -18
-7 -2 -5 -25 -26 -52 -47 -67 -54 -194 -185 -202 -208 -3 -10 -9 -18 -14 -18
-5 0 -18 -16 -30 -35 -12 -20 -28 -41 -35 -49 -7 -7 -28 -37 -46 -67 -18 -30
-37 -55 -41 -57 -4 -2 -8 -14 -8 -27 0 -12 -6 -28 -14 -34 -8 -7 -17 -23 -20
-36 -4 -14 -11 -25 -16 -25 -6 0 -10 -15 -10 -34 0 -19 -7 -41 -15 -50 -8 -8
-15 -23 -15 -33 0 -11 -7 -28 -15 -39 -8 -10 -15 -40 -15 -66 0 -28 -6 -53
-15 -62 -9 -9 -15 -33 -15 -61 0 -28 -6 -52 -15 -61 -21 -22 -21 -397 0 -434
8 -14 14 -41 15 -61 0 -23 6 -39 15 -43 11 -4 15 -20 15 -55 0 -27 7 -63 15
-80 8 -17 22 -45 30 -62 8 -17 15 -41 15 -54 0 -12 7 -28 15 -35 8 -7 15 -19
15 -26 0 -8 4 -14 10 -14 5 0 12 -15 15 -33 4 -19 17 -45 29 -58 13 -14 26
-36 29 -51 4 -14 18 -36 32 -49 13 -13 25 -31 25 -39 0 -9 8 -23 18 -31 9 -9
37 -40 62 -70 47 -56 68 -77 141 -144 52 -48 165 -135 174 -135 4 0 24 -13 45
-30 21 -16 45 -30 53 -30 9 0 18 -4 22 -9 11 -19 197 -101 227 -101 14 0 33
-7 44 -15 10 -8 30 -15 44 -15 14 0 37 -6 51 -14 15 -8 65 -17 110 -21 46 -4
89 -11 96 -17 14 -11 228 -5 363 11 87 10 166 28 230 53 14 6 39 12 55 14 28
3 179 74 260 123 11 6 28 14 37 17 9 3 19 12 22 20 3 8 15 14 26 14 11 0 23 7
26 15 4 8 12 15 20 15 8 0 14 5 14 10 0 6 7 13 15 17 64 24 327 305 368 393 4
8 16 29 27 45 11 17 26 46 35 65 9 19 23 40 31 47 9 6 18 26 21 45 2 18 9 37
14 42 5 6 9 20 9 32 0 12 7 27 15 34 8 7 15 20 15 30 0 10 7 42 16 71 8 30 22
77 29 104 36 125 38 497 3 575 -6 14 -15 45 -19 70 -22 125 -31 156 -70 232
-5 10 -9 27 -9 37 0 11 -4 22 -9 26 -6 3 -22 31 -37 63 -15 31 -37 70 -50 85
-13 16 -24 34 -24 42 0 7 -7 15 -15 19 -8 3 -15 10 -15 17 0 11 -45 72 -87
118 -13 13 -23 28 -23 32 0 5 -6 9 -13 9 -7 0 -21 14 -30 30 -10 17 -24 30
-31 30 -8 0 -16 9 -19 20 -3 11 -17 24 -31 30 -15 5 -29 16 -32 24 -6 16 -99
89 -126 99 -10 3 -18 10 -18 16 0 5 -8 11 -17 15 -10 3 -31 15 -48 26 -16 10
-49 29 -73 40 l-43 21 56 54 c31 30 60 55 65 55 16 0 11 66 -5 80 -8 7 -15 25
-15 41 0 15 -7 34 -15 43 -8 8 -15 21 -15 29 0 8 -7 20 -15 27 -8 7 -15 25
-15 40 0 42 -49 90 -92 90 -19 0 -57 7 -84 15 -27 8 -67 15 -89 15 -22 0 -49
7 -59 15 -11 8 -34 15 -50 15 -17 0 -53 7 -80 15 -64 19 -106 19 -136 -1z m54
-729 c15 -8 47 -15 70 -15 23 0 51 -7 62 -15 10 -8 35 -15 55 -15 20 0 42 -7
49 -15 7 -8 23 -15 36 -15 12 0 29 -7 38 -15 8 -8 26 -15 40 -15 14 0 26 -4
26 -9 0 -9 73 -51 90 -51 5 0 21 -11 36 -25 15 -14 32 -25 38 -25 6 0 22 -13
36 -30 14 -16 29 -30 33 -30 15 0 148 -143 174 -187 14 -24 29 -43 34 -43 5 0
9 -6 9 -13 0 -8 13 -32 28 -53 30 -41 62 -105 62 -122 0 -6 3 -12 8 -14 13 -6
64 -161 72 -223 5 -33 14 -89 19 -125 14 -84 14 -225 1 -270 -6 -19 -13 -62
-16 -95 -3 -33 -12 -67 -20 -76 -8 -8 -14 -22 -14 -30 -1 -22 -39 -130 -51
-145 -6 -8 -8 -14 -5 -14 4 0 0 -7 -8 -16 -9 -8 -16 -22 -16 -30 0 -7 -12 -31
-27 -52 l-28 -39 -25 41 c-14 23 -36 66 -49 96 -13 30 -27 63 -32 72 -5 10 -9
26 -9 35 0 10 -7 31 -15 47 -8 15 -15 40 -15 55 -1 14 -7 37 -15 51 -19 33
-22 389 -3 408 6 6 15 33 19 59 12 76 27 130 54 185 14 29 25 58 25 66 0 8 14
31 30 52 22 28 30 48 30 79 0 23 -3 41 -7 41 -5 0 -19 17 -33 38 -32 49 -148
162 -166 162 -8 0 -18 -8 -21 -17 -4 -10 -19 -31 -35 -47 -15 -17 -28 -36 -28
-44 0 -8 -13 -31 -30 -52 -16 -21 -30 -45 -30 -53 0 -9 -14 -39 -31 -68 -16
-28 -28 -57 -25 -64 2 -7 -1 -21 -8 -31 -18 -26 -46 -124 -52 -187 -3 -29 -11
-61 -17 -72 -17 -30 -16 -473 1 -483 7 -5 15 -38 18 -77 3 -38 9 -76 15 -86 5
-10 9 -27 9 -38 0 -11 7 -26 15 -34 8 -8 17 -28 20 -44 6 -39 32 -100 45 -108
5 -3 10 -16 10 -29 0 -13 14 -42 30 -64 17 -23 30 -48 30 -56 0 -9 16 -28 35
-43 19 -15 35 -32 35 -37 0 -18 -101 -97 -142 -112 -10 -3 -18 -10 -18 -14 0
-4 -25 -17 -55 -30 -30 -13 -55 -27 -55 -32 0 -4 -12 -8 -27 -8 -16 0 -37 -7
-47 -15 -11 -8 -30 -15 -42 -15 -12 0 -27 -7 -34 -15 -8 -10 -30 -15 -62 -15
-27 0 -63 -7 -79 -16 -25 -13 -63 -15 -227 -11 -194 4 -225 6 -238 20 -4 4
-27 7 -50 7 -25 0 -49 6 -58 15 -8 8 -23 15 -33 15 -10 0 -27 7 -37 15 -11 8
-30 15 -42 15 -12 0 -27 7 -34 15 -7 8 -21 15 -30 15 -10 0 -20 3 -22 8 -2 4
-24 18 -51 32 -26 13 -47 28 -47 32 0 5 -6 8 -13 8 -7 0 -29 12 -48 28 -48 38
-189 182 -189 193 0 5 -7 9 -15 9 -8 0 -18 12 -21 27 -4 15 -18 37 -31 49 -12
12 -23 26 -23 31 0 6 -14 30 -31 53 -18 24 -32 51 -33 59 -2 24 -39 101 -48
101 -4 0 -8 17 -8 38 0 20 -7 46 -15 56 -8 11 -15 31 -15 45 0 14 -7 35 -15
45 -21 28 -22 449 -1 498 27 65 39 104 43 140 3 21 11 42 19 49 8 6 14 19 14
28 0 9 5 22 12 29 6 6 13 18 14 26 2 13 112 185 150 235 39 50 156 160 212
197 31 22 59 42 60 47 2 4 8 7 14 7 6 0 30 14 55 30 24 17 54 30 66 30 12 0
31 7 41 15 11 8 26 15 34 15 7 0 20 7 28 15 13 13 31 16 69 15 3 0 18 6 35 15
16 8 44 15 62 15 18 1 44 7 58 15 36 21 304 21 344 0z"/>
<path d="M1707 3044 c-4 -4 -29 -11 -57 -15 -56 -9 -118 -54 -133 -96 -5 -12
-13 -23 -18 -23 -5 0 -9 -229 -9 -565 l0 -565 55 0 c45 0 56 4 66 21 6 12 8
34 5 50 -3 16 -6 188 -6 382 l-1 352 81 3 c50 2 87 -2 95 -8 11 -9 23 -8 50 1
33 12 35 15 35 59 0 25 -5 51 -12 58 -8 8 -52 12 -130 12 l-118 0 0 50 c0 30
8 68 21 94 l20 44 129 4 c71 2 131 6 134 9 3 3 6 18 7 35 4 66 1 71 -50 88
-49 16 -152 22 -164 10z"/>
<path d="M2503 2585 l-33 -14 0 -161 c0 -92 4 -170 10 -181 8 -15 21 -19 58
-19 58 0 85 17 85 54 0 15 6 30 13 33 14 5 18 40 8 67 -4 10 -24 18 -55 22
l-50 7 19 21 c10 11 22 29 25 39 4 9 13 17 21 17 18 0 29 60 17 92 -6 17 -20
27 -41 32 -41 8 -39 8 -77 -9z"/>
<path d="M3360 3881 c-8 -4 -48 -11 -89 -15 -41 -4 -79 -10 -85 -15 -6 -5 -29
-12 -51 -16 -22 -4 -45 -11 -51 -16 -6 -5 -26 -11 -43 -13 -18 -2 -38 -9 -44
-15 -6 -6 -19 -11 -28 -11 -9 0 -22 -7 -29 -15 -7 -8 -23 -15 -35 -15 -12 0
-28 -7 -35 -15 -7 -8 -19 -15 -26 -15 -8 0 -14 -4 -14 -9 0 -5 -10 -13 -22
-17 -22 -7 -36 -16 -66 -46 -9 -9 -28 -18 -41 -20 -18 -2 -25 -10 -28 -31 -3
-21 5 -37 34 -67 21 -21 52 -55 68 -74 60 -70 95 -106 105 -106 5 0 19 9 29
19 19 19 62 45 94 57 9 3 17 10 17 15 0 5 8 9 18 9 9 0 30 7 46 15 15 8 34 15
41 15 7 0 18 7 25 15 7 8 27 15 45 15 18 0 49 7 68 15 20 8 51 15 70 15 18 0
42 7 53 15 28 21 312 22 340 0 10 -8 34 -15 52 -15 18 0 49 -7 69 -15 19 -8
51 -15 69 -15 19 0 34 -4 34 -10 0 -5 12 -13 28 -16 15 -4 36 -13 47 -20 11
-8 25 -14 33 -14 7 0 28 -11 45 -24 18 -13 42 -27 55 -31 12 -3 22 -10 22 -15
0 -4 8 -10 18 -14 24 -8 51 -27 83 -58 16 -16 30 -28 32 -28 6 0 136 -132 165
-166 12 -15 22 -32 22 -38 0 -6 11 -23 25 -38 14 -15 25 -30 25 -33 0 -6 32
-74 49 -105 22 -41 30 -61 41 -99 6 -23 15 -39 20 -36 6 4 10 -13 10 -38 0
-25 7 -61 15 -80 8 -20 15 -54 15 -76 0 -22 5 -52 11 -68 12 -30 14 -162 3
-203 -3 -14 -10 -50 -14 -81 -4 -30 -12 -64 -17 -75 -5 -10 -11 -37 -12 -59
-2 -22 -8 -43 -14 -47 -7 -4 -12 -11 -12 -15 -1 -18 -45 -122 -74 -173 -17
-30 -36 -66 -43 -80 -7 -14 -15 -27 -18 -30 -3 -3 -19 -23 -35 -45 -16 -22
-39 -49 -50 -61 -11 -11 -34 -36 -50 -55 -17 -19 -48 -47 -70 -64 -59 -44 -65
-48 -83 -68 -9 -9 -22 -17 -28 -17 -7 0 -14 -3 -16 -7 -1 -5 -24 -18 -50 -31
-26 -13 -50 -27 -53 -33 -4 -5 -17 -9 -29 -9 -13 0 -29 -7 -36 -15 -7 -8 -23
-15 -35 -15 -12 0 -28 -7 -35 -15 -7 -8 -29 -15 -49 -15 -21 0 -46 -7 -57 -15
-11 -8 -41 -15 -70 -15 -33 0 -56 -5 -64 -15 -18 -22 -277 -22 -306 0 -10 8
-37 15 -59 15 -22 0 -51 7 -65 15 -14 8 -44 14 -68 15 -28 0 -45 5 -48 15 -4
8 -14 15 -23 15 -10 0 -26 7 -37 15 -10 8 -29 15 -40 15 -12 0 -27 7 -34 15
-7 8 -19 15 -26 15 -8 0 -14 5 -14 10 0 6 -6 10 -13 10 -7 0 -41 20 -75 45
-65 48 -86 54 -96 30 -3 -8 -12 -15 -21 -15 -8 0 -15 -5 -15 -11 0 -6 -38 -49
-85 -94 -90 -87 -108 -125 -60 -125 14 0 28 -7 31 -15 4 -8 13 -15 20 -15 8 0
17 -7 20 -15 4 -8 11 -15 16 -15 6 0 27 -13 47 -28 54 -42 285 -152 319 -152
11 0 24 -5 27 -10 3 -6 18 -10 32 -10 13 0 37 -7 51 -15 15 -8 65 -19 112 -26
102 -14 420 -21 435 -10 5 5 48 11 94 15 47 4 93 13 105 21 11 8 33 15 47 15
15 0 29 4 31 9 2 6 19 12 38 16 31 5 63 18 180 73 19 9 39 22 43 29 4 7 17 13
27 13 10 0 22 5 25 11 4 5 17 14 28 20 30 12 56 30 86 57 14 12 29 22 33 22
11 0 268 255 268 266 0 5 13 23 28 40 16 17 36 47 45 66 9 20 23 41 32 48 8 7
15 21 15 31 0 11 5 19 10 19 6 0 10 6 10 14 0 7 9 25 20 39 11 14 20 35 20 46
0 12 5 21 10 21 6 0 10 10 10 22 0 12 6 29 14 37 13 16 29 67 47 150 5 25 12
47 17 50 4 4 8 11 9 16 7 42 26 271 26 320 0 106 -25 319 -39 336 -8 8 -14 29
-14 46 0 17 -7 44 -15 59 -8 16 -15 39 -15 50 0 12 -7 27 -15 34 -8 7 -15 21
-15 31 0 10 -18 53 -40 96 -22 43 -40 83 -40 90 0 7 -6 16 -13 20 -8 4 -17 15
-21 23 -24 52 -65 107 -128 173 -27 27 -48 51 -48 54 0 5 -110 110 -143 136
-16 12 -43 34 -60 49 -18 15 -36 28 -41 28 -4 0 -25 12 -45 28 -45 34 -70 49
-98 61 -11 6 -24 15 -28 20 -3 6 -14 11 -24 11 -10 0 -43 14 -74 30 -31 17
-65 30 -76 30 -10 0 -32 7 -47 15 -16 8 -37 15 -47 15 -9 0 -25 4 -35 10 -34
19 -170 33 -357 36 -104 2 -197 0 -205 -5z"/>
<path d="M3746 3032 c-18 -8 -53 -63 -101 -159 -15 -29 -30 -53 -35 -53 -4 0
-10 -10 -13 -22 -4 -13 -12 -32 -20 -42 -13 -18 -16 -16 -42 35 -16 30 -35 69
-44 87 -8 17 -19 32 -23 32 -8 0 -48 82 -48 98 0 14 -26 22 -70 22 -29 0 -42
-5 -50 -20 -7 -14 -11 -211 -11 -621 l-1 -600 25 -19 c30 -24 60 -26 77 -5 7
8 19 15 26 15 11 0 14 80 16 468 l3 467 28 -59 c42 -85 56 -98 108 -94 46 3
47 4 105 115 16 29 30 51 32 49 2 -2 3 -214 2 -470 -1 -455 0 -466 20 -486 26
-26 60 -26 88 0 l22 21 0 608 c0 476 -3 611 -13 619 -18 15 -59 22 -81 14z"/>
</g>
</svg>
